# xmcd CD database file
#
# Track frame offsets:
#	150
#	17157
#	35576
#	53899
#	73289
#	92380
#	113146
#	132424
#	151655
#	167123
#	180061
#
# Disc length: 2663 seconds
#
# Revision: 1
# Processed by: cddbd v1.5.2PL0 Copyright (c) Steve Scherf et al.
# Submitted via: CDex 1.70beta2
#
DISCID=860a650b
DTITLE=Kevin Costner and Modern West - Turn it On
DYEAR=2010
DGENRE=Country
TTITLE0=Turn it On
TTITLE1=Ashes turn to Stone
TTITLE2=Moon so High
TTITLE3=Maria Nay
TTITLE4=Let me be the One
TTITLE5=Top down
TTITLE6=Red River
TTITLE7=Palisades
TTITLE8=The way you love me
TTITLE9=Saturday Night
TTITLE10=All i want from you
EXTD=YEAR: 2010
EXTT0=
EXTT1=
EXTT2=
EXTT3=
EXTT4=
EXTT5=
EXTT6=
EXTT7=
EXTT8=
EXTT9=
EXTT10=
PLAYORDER=
